<svg width="58" height="58" viewBox="0 0 58 58" fill="none" xmlns="http://www.w3.org/2000/svg">
<g filter="url(#filter0_d_71_308)">
<rect x="4" width="50" height="50" rx="2" fill="#FFCF7A"/>
<mask id="mask0_71_308" style="mask-type:alpha" maskUnits="userSpaceOnUse" x="3" y="0" width="51" height="50">
<rect x="3.99951" width="50.0005" height="50" rx="2" fill="#ECCF94"/>
</mask>
<g mask="url(#mask0_71_308)">
<g filter="url(#filter1_f_71_308)">
<ellipse cx="12.4949" cy="65.8332" rx="22.3303" ry="51.6667" fill="url(#paint0_linear_71_308)" fill-opacity="0.8"/>
</g>
<g filter="url(#filter2_f_71_308)">
<ellipse cx="22.3303" cy="51.6667" rx="22.3303" ry="51.6667" transform="matrix(-1 0 0 1 67.5925 -68.3335)" fill="url(#paint1_linear_71_308)" fill-opacity="0.8"/>
</g>
</g>
<g clip-path="url(#clip0_71_308)">
<path d="M35.5092 28.5281C34.4218 27.5981 33.3183 27.0347 32.2442 27.9633L31.6029 28.5246C31.1337 28.932 30.2613 30.8356 26.8882 26.9553C23.5157 23.08 25.5226 22.4766 25.9925 22.0727L26.6374 21.5107C27.7058 20.58 27.3026 19.4083 26.532 18.2022L26.067 17.4717C25.2929 16.2684 24.45 15.4782 23.3788 16.4075L22.8 16.9133C22.3265 17.2582 21.0031 18.3793 20.6821 20.5091C20.2958 23.0645 21.5145 25.9909 24.3067 29.2017C27.0954 32.414 29.8258 34.0275 32.4121 33.9994C34.5616 33.9762 35.8597 32.8228 36.2657 32.4035L36.8466 31.897C37.915 30.9684 37.2512 30.0229 36.1632 29.0908L35.5092 28.5281Z" fill="black"/>
</g>
</g>
<defs>
<filter id="filter0_d_71_308" x="-0.000488281" y="0" width="58.0005" height="58" filterUnits="userSpaceOnUse" color-interpolation-filters="sRGB">
<feFlood flood-opacity="0" result="BackgroundImageFix"/>
<feColorMatrix in="SourceAlpha" type="matrix" values="0 0 0 0 0 0 0 0 0 0 0 0 0 0 0 0 0 0 127 0" result="hardAlpha"/>
<feOffset dy="4"/>
<feGaussianBlur stdDeviation="2"/>
<feComposite in2="hardAlpha" operator="out"/>
<feColorMatrix type="matrix" values="0 0 0 0 0 0 0 0 0 0 0 0 0 0 0 0 0 0 0.25 0"/>
<feBlend mode="normal" in2="BackgroundImageFix" result="effect1_dropShadow_71_308"/>
<feBlend mode="normal" in="SourceGraphic" in2="effect1_dropShadow_71_308" result="shape"/>
</filter>
<filter id="filter1_f_71_308" x="-59.8354" y="-35.8335" width="144.661" height="203.333" filterUnits="userSpaceOnUse" color-interpolation-filters="sRGB">
<feFlood flood-opacity="0" result="BackgroundImageFix"/>
<feBlend mode="normal" in="SourceGraphic" in2="BackgroundImageFix" result="shape"/>
<feGaussianBlur stdDeviation="25" result="effect1_foregroundBlur_71_308"/>
</filter>
<filter id="filter2_f_71_308" x="-27.0681" y="-118.333" width="144.661" height="203.333" filterUnits="userSpaceOnUse" color-interpolation-filters="sRGB">
<feFlood flood-opacity="0" result="BackgroundImageFix"/>
<feBlend mode="normal" in="SourceGraphic" in2="BackgroundImageFix" result="shape"/>
<feGaussianBlur stdDeviation="25" result="effect1_foregroundBlur_71_308"/>
</filter>
<linearGradient id="paint0_linear_71_308" x1="26.8154" y1="55.8332" x2="4.1204" y2="55.7978" gradientUnits="userSpaceOnUse">
<stop stop-color="#F98B4D"/>
<stop offset="1" stop-color="#FF6752"/>
</linearGradient>
<linearGradient id="paint1_linear_71_308" x1="36.6508" y1="41.6667" x2="13.9559" y2="41.6313" gradientUnits="userSpaceOnUse">
<stop stop-color="#FFD9C4"/>
<stop offset="1" stop-color="white"/>
</linearGradient>
<clipPath id="clip0_71_308">
<rect width="18" height="18" fill="white" transform="translate(20 16)"/>
</clipPath>
</defs>
</svg>
