<svg width="46" height="46" viewBox="0 0 46 46" fill="none" xmlns="http://www.w3.org/2000/svg">
<g clip-path="url(#clip0_64_204)">
<path d="M38.5826 20.0773L37.9632 18.914L36.7865 19.5076C35.8866 19.9615 34.9139 20.188 33.8992 20.1828C30.4252 20.1627 27.5989 17.2782 27.5989 13.753V11.4876C27.5989 7.81329 26.3403 4.20526 24.055 1.32822L23.0001 0L9.46872 17.0351C6.87606 20.1309 5.41652 24.0589 5.35841 28.098C5.29059 32.8138 7.10152 37.2895 10.4578 40.7003C13.8123 44.1096 18.2552 45.9916 22.9682 46H22.9832H22.9848H23.0003H23.0004C27.7073 45.9998 32.1331 44.1693 35.4649 40.8434C38.8045 37.5097 40.6437 33.0751 40.6437 28.3563C40.6436 25.4723 39.931 22.6094 38.5826 20.0773ZM27.7826 35.83C28.0426 35.8306 28.3063 35.811 28.5645 35.7693C28.7347 36.3197 28.8204 36.8936 28.8204 37.4851C28.8204 39.0417 28.2137 40.5046 27.1119 41.6043C26.0128 42.7015 24.5529 43.3054 23 43.3054C22.9962 43.3054 22.9924 43.3054 22.9887 43.3054C21.4389 43.3024 19.9748 42.6804 18.8662 41.5537C17.7567 40.4262 17.158 38.9507 17.1803 37.3993C17.1995 36.0654 17.6822 34.7681 18.5396 33.7465L22.8032 28.3797C22.9867 28.9201 23.0828 29.4903 23.0828 30.0656V31.062C23.0829 33.676 25.1912 35.8149 27.7826 35.83ZM33.5611 38.9364C32.6801 39.8158 31.7089 40.5718 30.6683 41.1958C31.2222 40.0537 31.5151 38.7921 31.5151 37.4851C31.5151 36.0933 31.171 34.7114 30.52 33.4889L29.9006 32.3256L28.7239 32.9192C28.4359 33.0644 28.1251 33.1363 27.7983 33.1353C26.6841 33.1288 25.7776 32.1987 25.7776 31.0619V30.0655C25.7776 28.2796 25.1659 26.526 24.0551 25.1276L23.0001 23.7994L16.4635 32.0285C15.2162 33.5216 14.514 35.4144 14.486 37.3604C14.4669 38.6904 14.7573 39.9801 15.3241 41.151C14.2655 40.5057 13.2762 39.7226 12.3785 38.8103C9.5316 35.9171 7.99544 32.1264 8.05284 28.1367C8.10215 24.7099 9.34225 21.3774 11.5447 18.7532L11.5564 18.7393L22.9297 4.42111C24.2115 6.54211 24.9043 8.99662 24.9043 11.4876V13.753C24.9043 18.7555 28.9324 22.8488 33.8835 22.8775C34.8523 22.8848 35.8137 22.7321 36.7289 22.4358C37.5296 24.2948 37.9489 26.3191 37.9489 28.3564C37.9489 32.3545 36.3907 36.1118 33.5611 38.9364Z" fill="white"/>
</g>
<defs>
<clipPath id="clip0_64_204">
<rect width="46" height="46" fill="white"/>
</clipPath>
</defs>
</svg>
