<svg width="50" height="50" viewBox="0 0 50 50" fill="none" xmlns="http://www.w3.org/2000/svg">
<g clip-path="url(#clip0_64_206)">
<path d="M8.0214 23.725C5.74574 26.5672 4.49243 30.1761 4.49243 33.8869C4.49243 42.7716 11.7208 50 20.6056 50C29.4903 50 36.7187 42.7716 36.7187 33.8869C36.7187 30.176 35.4654 26.5671 33.1897 23.725L20.6057 8.0083L8.0214 23.725ZM33.7891 33.8869C33.7891 41.1562 27.875 47.0703 20.6057 47.0703C13.3363 47.0703 7.42219 41.1562 7.42219 33.8869C7.42219 30.8391 8.44718 27.8806 10.3084 25.5562L20.6057 12.6957L30.9029 25.5563C32.764 27.8806 33.7891 30.8391 33.7891 33.8869Z" fill="white"/>
<path d="M45.5077 11.8168C45.5077 10.1352 44.9555 8.55636 43.9108 7.25052L38.1835 0L32.4562 7.25061C31.4116 8.55636 30.8594 10.1353 30.8594 11.8169C30.8594 15.8554 34.145 19.141 38.1835 19.141C42.2221 19.141 45.5077 15.8553 45.5077 11.8168ZM33.789 11.8168C33.789 10.8063 34.12 9.85928 34.7462 9.07784L38.1835 4.72632L41.6209 9.07784C42.2471 9.85918 42.578 10.8062 42.578 11.8168C42.578 14.2399 40.6066 16.2113 38.1835 16.2113C35.7604 16.2113 33.789 14.2399 33.789 11.8168Z" fill="white"/>
</g>
<defs>
<clipPath id="clip0_64_206">
<rect width="50" height="50" fill="white"/>
</clipPath>
</defs>
</svg>
