<svg width="20" height="20" viewBox="0 0 20 20" fill="none" xmlns="http://www.w3.org/2000/svg">
<g clip-path="url(#clip0_71_295)">
<path d="M8.88892 -0.000488281H11.1111V11.1106H8.88892V-0.000488281Z" fill="#FFCF7A"/>
<path d="M15.0009 1.33813L13.888 3.26175C16.2873 4.64948 17.7778 7.23136 17.7778 9.99959C17.7778 14.2884 14.2888 17.7774 10 17.7774C5.71123 17.7774 2.22222 14.2884 2.22222 9.99959C2.22222 7.23136 3.71267 4.64948 6.11198 3.26175L4.99913 1.33813C1.91551 3.12199 0 6.44086 0 9.99959C0 15.5135 4.48611 19.9996 10 19.9996C15.5139 19.9996 20 15.5135 20 9.99959C20 6.44086 18.0845 3.12199 15.0009 1.33813Z" fill="#FFCF7A"/>
</g>
<defs>
<clipPath id="clip0_71_295">
<rect width="20" height="20" fill="white" transform="translate(0 -0.000488281)"/>
</clipPath>
</defs>
</svg>
