<svg width="18" height="18" viewBox="0 0 18 18" fill="none" xmlns="http://www.w3.org/2000/svg">
<g clip-path="url(#clip0_241_65)">
<path d="M4.34444 8.50605L12.67 0.20355C12.9427 -0.0683121 13.3844 -0.0678551 13.6567 0.204956C13.9288 0.477733 13.9281 0.91961 13.6553 1.19168L5.82532 9.00003L13.6556 16.8083C13.9283 17.0805 13.9291 17.522 13.657 17.7949C13.5205 17.9316 13.3416 18 13.1628 18C12.9844 18 12.8063 17.9321 12.67 17.7963L4.34444 9.49397C4.21306 9.36326 4.13934 9.18537 4.13934 9.00003C4.13934 8.81469 4.21327 8.63701 4.34444 8.50605Z" fill="#FFCF7A"/>
</g>
<defs>
<clipPath id="clip0_241_65">
<rect width="18" height="18" fill="white" transform="matrix(-1 0 0 1 18 0)"/>
</clipPath>
</defs>
</svg>
